<svg width="24" height="24" viewBox="0 0 24 24" fill="none" xmlns="http://www.w3.org/2000/svg">
<path d="M20.693 17.3301C21.0505 15.9966 21.0965 14.5987 20.8273 13.2446C20.5581 11.8905 19.9809 10.6165 19.1406 9.52117C18.3002 8.42581 17.2191 7.53847 15.9809 6.9278C14.7427 6.31713 13.3806 5.99951 12 5.99951C10.6194 5.99951 9.25731 6.31713 8.01911 6.9278C6.78092 7.53847 5.69981 8.42581 4.85943 9.52117C4.01905 10.6165 3.44194 11.8905 3.17274 13.2446C2.90355 14.5987 2.94948 15.9966 3.307 17.3301" stroke="#F8F8F8" stroke-linecap="round"/>
<path d="M12.7657 15.582C13.2527 16.292 12.9097 17.374 11.9997 17.999C11.0897 18.625 9.95668 18.557 9.46968 17.848C8.94968 17.092 7.15568 12.841 6.06668 10.211C5.86168 9.71595 6.46668 9.29995 6.85668 9.66895C8.92068 11.629 12.2467 14.826 12.7657 15.582Z" stroke="#F8F8F8"/>
<path d="M11.9996 6V8M5.63564 8.636L7.04964 10.05M18.3636 8.636L16.9496 10.05M20.6926 17.33L18.7616 16.812M3.30664 17.33L5.23764 16.812" stroke="#F8F8F8" stroke-linecap="round"/>
</svg>
