<svg width="32" height="32" viewBox="0 0 512 512" fill="none" xmlns="http://www.w3.org/2000/svg">
<path d="M336 192H376C386.609 192 396.783 196.214 404.284 203.716C411.786 211.217 416 221.391 416 232V424C416 434.609 411.786 444.783 404.284 452.284C396.783 459.786 386.609 464 376 464H136C125.391 464 115.217 459.786 107.716 452.284C100.214 444.783 96 434.609 96 424V232C96 221.391 100.214 211.217 107.716 203.716C115.217 196.214 125.391 192 136 192H176M336 128L256 48M256 48L176 128M256 48V321" stroke="#F8F8F8" stroke-width="32" stroke-linecap="round" stroke-linejoin="round"/>
</svg>
